<svg id="圖層_1" data-name="圖層 1" xmlns="http://www.w3.org/2000/svg" viewBox="0 0 120 34.1889"><defs><style>.cls-1{fill:#2e6c4c;}</style></defs><path class="cls-1" d="M15.342,31.39743h3.39711a.43031.43031,0,0,0,0-.86061H15.342a.63741.63741,0,0,1-.63672-.63669V20.8683A1.499,1.499,0,0,0,13.208,19.371H9.08234a.63742.63742,0,0,1-.63673-.63667V15.37a.63742.63742,0,0,1,.63673-.63666H13.208a1.499,1.499,0,0,0,1.49727-1.4973V8.51823a.63741.63741,0,0,1,.63672-.63669h3.2797a.63742.63742,0,0,1,.63673.63669V13.236a1.499,1.499,0,0,0,1.49727,1.4973H25.1351a.6374.6374,0,0,1,.63666.63666v3.36436a.6374.6374,0,0,1-.63666.63667H19.85788a.4303.4303,0,0,0,0,.8606H25.1351a1.499,1.499,0,0,0,1.49727-1.49727V15.37a1.499,1.499,0,0,0-1.49727-1.49726H20.75566a.63741.63741,0,0,1-.63667-.6367V8.51823a1.499,1.499,0,0,0-1.49733-1.4973H15.342a1.499,1.499,0,0,0-1.49733,1.4973V13.236a.63741.63741,0,0,1-.63666.6367H9.08234A1.499,1.499,0,0,0,7.585,15.37v3.36436A1.499,1.499,0,0,0,9.08234,20.2316H13.208a.63741.63741,0,0,1,.63666.6367v9.03183A1.499,1.499,0,0,0,15.342,31.39743Z"/><path class="cls-1" d="M32.61361,11.17349H23.66634a.63741.63741,0,0,1-.63666-.6367V1.4973A1.499,1.499,0,0,0,21.53235,0H12.6697a1.499,1.499,0,0,0-1.49727,1.4973v8.9549a.63742.63742,0,0,1-.63672.6367H1.60382A1.499,1.499,0,0,0,.10649,12.58619v9.02418a1.499,1.499,0,0,0,1.49733,1.4973h8.93189a.63742.63742,0,0,1,.63672.63669V32.6916a1.499,1.499,0,0,0,1.49727,1.4973h8.86265a.4303.4303,0,0,0,0-.8606H12.6697a.63741.63741,0,0,1-.63666-.6367V23.74436a1.499,1.499,0,0,0-1.49733-1.4973H1.60382a.63742.63742,0,0,1-.63673-.63669V12.58619a.63742.63742,0,0,1,.63673-.63669h8.93189A1.499,1.499,0,0,0,12.033,10.4522V1.4973A.6374.6374,0,0,1,12.6697.86061h8.86265a.63741.63741,0,0,1,.63672.63669v9.03949a1.499,1.499,0,0,0,1.49727,1.4973h8.94727a.63741.63741,0,0,1,.63667.6367v8.855a.63741.63741,0,0,1-.63667.6367h-9.4311a.4303.4303,0,0,0,0,.8606h9.4311a1.499,1.499,0,0,0,1.49727-1.4973v-8.855A1.499,1.499,0,0,0,32.61361,11.17349Z"/><path class="cls-1" d="M18.95409,21.939S15.75541,33.27709,26.184,34.04667a20.69648,20.69648,0,0,0-3.72-8.07144c3.09246,2.0566,4.29165,7.40658,4.29165,7.40658l.08642.51989a7.11626,7.11626,0,0,0,.41618-5.8983C25.93146,24.98075,20.805,22.38968,18.95409,21.939Z"/><path class="cls-1" d="M46.32874,7.31152a1.5995,1.5995,0,0,0-.30733.99918V19.70963a.78642.78642,0,0,1-.8273.71366H44.6269a.78642.78642,0,0,1-.8273-.71366V9.26912c0-.38748-.23626-.73412-.52-.73412-.2836,0-.52-.32627-.52-.71365V7.37264a.76384.76384,0,0,1,.80369-.71365h.09446a.8024.8024,0,0,0,.8273-.73412V2.39716a.74833.74833,0,0,1,.80358-.69338h.5437a.75641.75641,0,0,1,.82719.69338V6.31235A1.43,1.43,0,0,1,46.32874,7.31152ZM57.93391,3.43708l-.56731.46907a2.44026,2.44026,0,0,1-1.44174.50973H48.24322a.75836.75836,0,0,1-.8273-.71366v-.4486a.78649.78649,0,0,1,.8273-.71375h7.23251c.47275,0,.85092-.18355.85092-.40785,0-.24468.37817-.42824.82719-.42824h.5437c.449,0,.82719.28552.82719.61179A2.0081,2.0081,0,0,1,57.93391,3.43708ZM48.24322,7.1076a.75836.75836,0,0,1-.8273-.71366v-.4487a.78821.78821,0,0,1,.8273-.734h9.45432a.78818.78818,0,0,1,.82719.734v.4487a.77251.77251,0,0,1-.82719.71366Zm0,2.50816a.78649.78649,0,0,1-.8273-.71365V8.637a.78649.78649,0,0,1,.8273-.71365h9.45432a.78645.78645,0,0,1,.82719.71365v.26515a.78645.78645,0,0,1-.82719.71365Zm0,2.50816a.78648.78648,0,0,1-.8273-.71365V11.1655a.78822.78822,0,0,1,.8273-.734h9.45432a.78819.78819,0,0,1,.82719.734v.24477a.78644.78644,0,0,1-.82719.71365Zm.07084,8.29937a.75827.75827,0,0,1-.82719-.71366v-5.934a.75832.75832,0,0,1,.82719-.71365h9.38348a.78644.78644,0,0,1,.82719.71365v4.425a1.86608,1.86608,0,0,1-.5672,1.18273l-.59093.53019a2.43966,2.43966,0,0,1-1.44174.50973Zm1.34728-2.61013a.77252.77252,0,0,0,.82719.71375h4.9872a.78057.78057,0,0,0,.85092-.71375V15.6721a.77947.77947,0,0,0-.85092-.69337h-4.9872a.77105.77105,0,0,0-.82719.69337Z"/><path class="cls-1" d="M66.84453,13.99993a2.57943,2.57943,0,0,1-1.51269.48945H64.00829a.76386.76386,0,0,1-.80369-.71375v-.26505a.76386.76386,0,0,1,.80369-.71375h.92176c.49636,0,.78-.16308.78-.34664a.28929.28929,0,0,0-.189-.24467,1.53073,1.53073,0,0,0-.59093-.0816h-.87453a.742.742,0,0,1-.8273-.6729V11.1655a.682.682,0,0,1,.63816-.71365.6694.6694,0,0,0,.63827-.71375V5.02766a.6694.6694,0,0,0-.63827-.71375.66929.66929,0,0,1-.63816-.71365V3.33512a.66331.66331,0,0,1,.63816-.69328c.35456,0,.63827-.22431.63827-.469,0-.26515.35445-.46908.82719-.46908h.52c.54359,0,.87454.20393.87454.46908,0,.24467.37817.469.8273.469h7.13794c.44913,0,.80369-.22431.80369-.469,0-.26515.35456-.46908.82719-.46908h.52c.44913,0,.80369.20393.80369.46908,0,.2243.33083.469.68539.469a.66324.66324,0,0,1,.63816.69328v.26514a.66922.66922,0,0,1-.63816.71365.6917.6917,0,0,0-.68539.71375V9.7381a.6917.6917,0,0,0,.68539.71375.682.682,0,0,1,.63816.71365V11.451a.75609.75609,0,0,1-.82719.6729h-.89815a1.331,1.331,0,0,0-.56731.0816q-.2127.09182-.21276.24467c0,.18356.28371.34664.78007.34664h.89815a.78646.78646,0,0,1,.82719.71375v.26505a.78646.78646,0,0,1-.82719.71375H76.81883a2.41974,2.41974,0,0,1-1.44174-.48945l-.49636-.34664a1.42647,1.42647,0,0,1-.61454-.99917c0-.26505-.44913-.5302-.92176-.5302h-4.5618c-.449,0-.80358.26515-.80358.5302a1.46443,1.46443,0,0,1-.63816.99917Zm-2.789,6.42336a.77126.77126,0,0,1-.8273-.71366v-.26505a.75837.75837,0,0,1,.8273-.71374h5.129a.75062.75062,0,0,0,.80357-.71375v-.265a.74825.74825,0,0,0-.80357-.69328h-5.129a.77134.77134,0,0,1-.8273-.71375v-.28552a.77132.77132,0,0,1,.8273-.71365h5.129c.47263,0,.80357-.2243.80357-.61179,0-.34664.35456-.63216.8273-.63216H71.359a.73192.73192,0,0,1,.80358.63216c0,.38749.35456.61179.8273.61179h5.15262a.78644.78644,0,0,1,.82719.71365V16.345a.78646.78646,0,0,1-.82719.71375H72.98987a.75637.75637,0,0,0-.8273.69328v.265a.75838.75838,0,0,0,.8273.71375h5.15262a.77252.77252,0,0,1,.82719.71374v.26505a.78638.78638,0,0,1-.82719.71366ZM66.72635,4.783c0,.24467.37817.4486.8273.4486h7.13794c.44913,0,.80369-.20393.80369-.4486,0-.26515-.35456-.46908-.80369-.46908H67.55365C67.10452,4.31391,66.72635,4.51784,66.72635,4.783Zm0,2.61013c0,.24467.37817.4486.8273.4486h7.13794c.44913,0,.80369-.20393.80369-.4486,0-.26515-.35456-.48945-.80369-.48945H67.55365C67.10452,6.90367,66.72635,7.128,66.72635,7.39312Zm0,2.6305c0,.2243.37817.42823.8273.42823h7.13794c.44913,0,.80369-.20393.80369-.42823,0-.3059-.33094-.48945-.80369-.48945H67.55365C67.0809,9.53417,66.72635,9.71772,66.72635,10.02362Z"/><path class="cls-1" d="M84.41622,7.04648a.66285.66285,0,0,1-.73273-.63216V5.80253a.6487.6487,0,0,1,.73273-.61178h5.578a.6539.6539,0,0,1,.70912.61178v.61179a.66923.66923,0,0,1-.70912.63216Zm.35456,2.83443a.6653.6653,0,0,1-.73273-.63216V8.637a.67558.67558,0,0,1,.73273-.59131h4.86891a.65206.65206,0,0,1,.70911.59131v.61179a.64442.64442,0,0,1-.70911.63216Zm-.73273,2.243V11.451a.67636.67636,0,0,1,.73273-.61179h4.86891a.65383.65383,0,0,1,.70911.61179v.6729a.66713.66713,0,0,1-.70911.61179H84.77078A.69054.69054,0,0,1,84.03805,12.12392Zm.85092,8.25862a.706.706,0,0,1-.73273-.63216V13.97956c0-.42823.09457-.63216.26-.63216h5.45984c.21276,0,.37817.30589.37817.63216v4.26183a1.65493,1.65493,0,0,1-.52,1.08076l-.709.59141a2.25473,2.25473,0,0,1-1.2527.469Zm1.44173-2.50816a.69054.69054,0,0,0,.73273.61178h.2836a.68293.68293,0,0,0,.70912-.61178V15.85556a.68292.68292,0,0,0-.70912-.61169h-.2836a.69054.69054,0,0,0-.73273.61169ZM91.88511,6.96489a.6155.6155,0,0,1-.61455-.63216V5.70057c0-.32627.18915-.63216.4019-.63216.21265,0,.37818-.26505.37818-.61169V2.33594a.70665.70665,0,0,1,.73262-.61168h5.17623a.66706.66706,0,0,1,.70912.61168V4.45672c0,.34664.1418.61169.40178.61169.21276,0,.37818.30589.37818.63216v.63216a.60137.60137,0,0,1-.61455.63216,1.93213,1.93213,0,0,1-1.08718-.44861l-.75634-.63216a1.64412,1.64412,0,0,1-.49636-1.06039V4.23242a.7073.7073,0,0,0-.73273-.65253h-.78a.7073.7073,0,0,0-.73273.65253v.59131a1.53793,1.53793,0,0,1-.49636,1.06039l-.73273.63216A1.92763,1.92763,0,0,1,91.88511,6.96489Zm-.189,3.752v-.65254a.67621.67621,0,0,1,.73273-.61168H96.565a.69916.69916,0,0,0,.70912-.63216V8.24958a.7214.7214,0,0,1,.73273-.63216h.709a.688.688,0,0,1,.73273.63216V9.2079a1.57781,1.57781,0,0,1-.49636,1.06039l-.709.61179a2.23466,2.23466,0,0,1-1.2527.4486H92.42881A.69047.69047,0,0,1,91.69608,10.7169Zm0,4.527v-.65253a.69047.69047,0,0,1,.73273-.61178H96.565a.65744.65744,0,0,0,.70912-.63216v-.55057a.69047.69047,0,0,1,.73273-.61169h.709a.66065.66065,0,0,1,.73273.61169v.93805a1.57822,1.57822,0,0,1-.49636,1.06039l-.709.63216a2.21584,2.21584,0,0,1-1.2527.42813H92.42881A.67622.67622,0,0,1,91.69608,15.24387Zm.73273,5.17942a.70724.70724,0,0,1-.73273-.65254v-.63206a.69151.69151,0,0,1,.73273-.63216H96.565a.66844.66844,0,0,0,.70912-.61178v-.57094a.67636.67636,0,0,1,.73273-.61179h.709a.64872.64872,0,0,1,.73273.61179v.938a1.62574,1.62574,0,0,1-.49636,1.08076l-.709.61169a2.32327,2.32327,0,0,1-1.2527.469ZM84.67605,1.9155a4.80323,4.80323,0,0,1,3.25834.20067,2.25923,2.25923,0,0,1,.898,1.64847l-.11207-.12423a4.42926,4.42926,0,0,0-2.415-1.2462A6.57061,6.57061,0,0,1,88.68125,3.916C85.76086,5.49475,84.67605,1.9155,84.67605,1.9155Z"/><path class="cls-1" d="M110.17921,16.38576a2.21562,2.21562,0,0,1-1.39451.53019h-.75634a.75061.75061,0,0,0-.80358.71375v.61169a2.06439,2.06439,0,0,1-.61454,1.22357l-.40179.40776a2.09658,2.09658,0,0,1-1.32366.55057.70893.70893,0,0,1-.75635-.71366v-.469c0-.40786.16553-.71375.42552-.71375s.449-.3059.449-.71375V3.29437a.77353.77353,0,0,1,.82731-.73412h2.74166c.44913,0,.80369-.20393.80369-.42823s.37817-.42824.82719-.42824h.5437c.449,0,.82719.28552.82719.61179a1.784,1.784,0,0,1-.59082,1.12151l-.59093.50982a2.13556,2.13556,0,0,1-1.3945.48945h-.9691a.77981.77981,0,0,0-.80358.734V6.3531a.75061.75061,0,0,0,.80358.71375h2.50541a.78823.78823,0,0,1,.8273.734v6.9128a1.608,1.608,0,0,1-.59093,1.2031Zm-2.95443-2.03909a.74832.74832,0,0,0,.80358.69328h.30732a.7564.7564,0,0,0,.82719-.69328V9.677a.77349.77349,0,0,0-.82719-.73413h-.30732a.76638.76638,0,0,0-.80358.73413Zm4.51446,6.07662a.76378.76378,0,0,1-.80369-.71366V19.261a.69674.69674,0,0,1,.70912-.71375.67755.67755,0,0,0,.68539-.71365V3.35559a.78649.78649,0,0,1,.8273-.71375h3.75811c.40179,0,.80358-.22431.80358-.469,0-.26515.35456-.46908.80358-.46908h.5437c.47263,0,.82719.26515.82719.65254a1.69144,1.69144,0,0,1-.59082,1.142l-.59093.53019a2.50561,2.50561,0,0,1-1.39451.48935h-1.91448a.7952.7952,0,0,0-.85091.71375V6.557a.79453.79453,0,0,0,.85091.69328h3.66355a.78646.78646,0,0,1,.82719.71375v.4486a.65822.65822,0,0,1-.56721.69328c-.30733,0-.56731.34674-.56731.73412v9.86957a.77123.77123,0,0,1-.82719.71366h-.52a.77126.77126,0,0,1-.8273-.71366V9.84006a.77353.77353,0,0,0-.8273-.73412h-.35445a.8258.8258,0,0,0-.85091.73412v8.40133a1.78167,1.78167,0,0,1-.59093,1.16235l-.56721.50982a2.4397,2.4397,0,0,1-1.44184.50973Z"/><path class="cls-1" d="M44.10826,31.26752a.20249.20249,0,0,1-.23081-.2308V27.34387a.20249.20249,0,0,1,.23081-.2308h.06338a.20248.20248,0,0,1,.2308.2308v1.20018a.20254.20254,0,0,0,.2308.2308h.7733a.20254.20254,0,0,0,.2308-.2308V27.34387a.20248.20248,0,0,1,.2308-.2308h.06339a.20248.20248,0,0,1,.2308.2308v3.69285a.20248.20248,0,0,1-.2308.2308h-.06339a.20248.20248,0,0,1-.2308-.2308v-1.506a.20254.20254,0,0,0-.2308-.2308h-.7733a.20254.20254,0,0,0-.2308.2308v1.506a.20248.20248,0,0,1-.2308.2308Z"/><path class="cls-1" d="M45.93153,31.32173h-.06339a.2548.2548,0,0,1-.285-.285v-1.506c0-.12542-.0511-.17659-.17659-.17659h-.7733c-.12549,0-.17659.05117-.17659.17659v1.506a.25479.25479,0,0,1-.285.285h-.06338a.25479.25479,0,0,1-.285-.285V27.34387a.25479.25479,0,0,1,.285-.285h.06338a.25479.25479,0,0,1,.285.285v1.20018c0,.12542.0511.17659.17659.17659h.7733c.12549,0,.17659-.05117.17659-.17659V27.34387a.2548.2548,0,0,1,.285-.285h.06339a.2548.2548,0,0,1,.285.285v3.69285A.2548.2548,0,0,1,45.93153,31.32173Zm-1.29829-2.076h.7733a.25479.25479,0,0,1,.285.285v1.506c0,.12542.0511.17659.17659.17659h.06339c.12549,0,.17659-.05117.17659-.17659V27.34387c0-.12542-.0511-.17659-.17659-.17659h-.06339c-.12549,0-.17659.05117-.17659.17659v1.20018a.2548.2548,0,0,1-.285.285h-.7733a.2548.2548,0,0,1-.285-.285V27.34387c0-.12542-.0511-.17659-.17659-.17659h-.06338c-.1255,0-.1766.05117-.1766.17659v3.69285c0,.12542.0511.17659.1766.17659h.06338c.12549,0,.17659-.05117.17659-.17659v-1.506A.2548.2548,0,0,1,44.63324,29.2457Z"/><path class="cls-1" d="M50.31735,30.96169a.39223.39223,0,0,1-.11534-.28275v-.54235a.20246.20246,0,0,1,.23081-.23081h.06338a.20246.20246,0,0,1,.2308.23081v.37507a.20254.20254,0,0,0,.23081.2308h.77329a.20254.20254,0,0,0,.2308-.2308v-.84247a.20254.20254,0,0,0-.2308-.2308h-.94057a.39617.39617,0,0,1-.28854-.1154l-.18464-.18464a.39235.39235,0,0,1-.11534-.28275V27.68429a.37057.37057,0,0,1,.11534-.28854l.18464-.18464a.39257.39257,0,0,1,.28275-.11533h1.11943a.38482.38482,0,0,1,.28275.12112l.18464.18464a.39234.39234,0,0,1,.11533.28275v.54235a.20245.20245,0,0,1-.2308.2308h-.06338a.20246.20246,0,0,1-.23081-.2308v-.375a.20253.20253,0,0,0-.2308-.2308h-.77329a.20254.20254,0,0,0-.23081.2308v.83661a.20251.20251,0,0,0,.23081.2308h.94636a.39242.39242,0,0,1,.28275.11547l.18464.18464a.39206.39206,0,0,1,.11533.28268v1.1771a.37044.37044,0,0,1-.11533.28854l-.18464.18464a.39264.39264,0,0,1-.28275.1154H50.79053a.39237.39237,0,0,1-.28275-.1154Z"/><path class="cls-1" d="M51.90417,31.32173H50.79053a.44491.44491,0,0,1-.321-.13121L50.279,31a.44451.44451,0,0,1-.13114-.32108v-.54235a.25479.25479,0,0,1,.285-.285h.06338a.25479.25479,0,0,1,.285.285v.37507c0,.12542.0511.17659.1766.17659h.77329c.1255,0,.1766-.05117.1766-.17659v-.84247c0-.12542-.0511-.17659-.1766-.17659h-.94057a.45126.45126,0,0,1-.3268-.13128l-.18478-.18465a.44449.44449,0,0,1-.13114-.32107V27.68429a.42415.42415,0,0,1,.13114-.32687l.18464-.18464a.4452.4452,0,0,1,.32115-.13121h1.11943a.43653.43653,0,0,1,.321.13693l.18479.18471a.44451.44451,0,0,1,.13114.32108v.54235a.25479.25479,0,0,1-.285.285h-.06338a.25479.25479,0,0,1-.285-.285v-.375c0-.12543-.0511-.1766-.1766-.1766h-.77329c-.1255,0-.1766.05117-.1766.1766v.83661c0,.12542.0511.17659.1766.17659h.94636a.44421.44421,0,0,1,.321.13135l.18479.18465a.4442.4442,0,0,1,.13114.321v1.1771a.42415.42415,0,0,1-.13114.32686l-.18464.18465A.44526.44526,0,0,1,51.90417,31.32173Zm-1.54843-.39837.19043.19043a.33837.33837,0,0,0,.24436.09952h1.11364a.33868.33868,0,0,0,.24449-.09959l.1845-.18457a.31628.31628,0,0,0,.09967-.24739l-.00014-1.17992a.338.338,0,0,0-.09953-.24435l-.18464-.18464a.33788.33788,0,0,0-.24435-.09959h-.94636a.2548.2548,0,0,1-.285-.285v-.83661a.25479.25479,0,0,1,.285-.285h.77329a.25479.25479,0,0,1,.285.285v.375c0,.12542.0511.1766.1766.1766h.06338c.12549,0,.1766-.05118.1766-.1766v-.54235a.33831.33831,0,0,0-.09953-.24443l-.18464-.18464a.32842.32842,0,0,0-.24435-.10524H50.78474a.33845.33845,0,0,0-.2445.09952l-.1845.18458a.3163.3163,0,0,0-.09966.24739l.00014,1.17413a.33832.33832,0,0,0,.09952.24442l.18464.18464a.34061.34061,0,0,0,.25015.09952h.94057a.2548.2548,0,0,1,.285.285v.84247a.25479.25479,0,0,1-.285.285h-.77329a.25479.25479,0,0,1-.285-.285v-.37507c0-.12543-.05111-.1766-.1766-.1766h-.06338c-.1255,0-.1766.05117-.1766.1766v.54235A.3383.3383,0,0,0,50.35574,30.92336Z"/><path class="cls-1" d="M56.58431,31.26752a.20258.20258,0,0,1-.23094-.2308v-.06346c0-.14426.06931-.2308.202-.2308s.202-.0866.202-.2308V27.87472c0-.14427-.06931-.2308-.202-.2308s-.202-.08654-.202-.23081v-.06352a.20258.20258,0,0,1,.23094-.2308h.87691a.20258.20258,0,0,1,.231.2308v.06352c0,.15578-.06931.23081-.202.23081s-.20779.08653-.20779.2308v2.63694c0,.1442.0751.2308.20779.2308s.202.08654.202.2308v.06346a.20258.20258,0,0,1-.23095.2308Z"/><path class="cls-1" d="M57.46122,31.32173h-.87691a.2549.2549,0,0,1-.28515-.285v-.06346a.24964.24964,0,0,1,.25621-.285c.03657,0,.1478,0,.1478-.17659V27.87472c0-.1766-.11123-.1766-.1478-.1766a.24964.24964,0,0,1-.25621-.285v-.06352a.2549.2549,0,0,1,.28515-.285h.87691a.25489.25489,0,0,1,.28515.285v.06352c0,.248-.1605.285-.25621.285-.1269,0-.15358.09606-.15358.1766v2.63694c0,.08053.02668.17659.15358.17659a.24964.24964,0,0,1,.25621.285v.06346A.25489.25489,0,0,1,57.46122,31.32173ZM56.58431,27.173c-.12549,0-.17673.05118-.17673.1766v.06352c0,.1766.11123.1766.14779.1766a.24964.24964,0,0,1,.25622.285v2.63694a.24964.24964,0,0,1-.25622.285c-.03656,0-.14779,0-.14779.17659v.06346c0,.12542.05124.17659.17673.17659h.87691c.1255,0,.17674-.05117.17674-.17659v-.06346c0-.17659-.11124-.17659-.1478-.17659a.25434.25434,0,0,1-.262-.285V27.87472a.25434.25434,0,0,1,.262-.285c.07312,0,.1478-.021.1478-.1766v-.06352c0-.12542-.05124-.1766-.17674-.1766Z"/><path class="cls-1" d="M61.78945,31.26752a.20249.20249,0,0,1-.23081-.2308V27.34959a.20249.20249,0,0,1,.23081-.2308h.11533a.26879.26879,0,0,1,.26539.17313l.929,2.14068c.04052.08654.1039.13848.15585.13848.06931,0,.11533-.06924.11533-.19043V27.34959a.20258.20258,0,0,1,.23094-.2308h.06339a.20248.20248,0,0,1,.2308.2308v3.68713a.20248.20248,0,0,1-.2308.2308h-.06339a.26909.26909,0,0,1-.26553-.17314l-.98094-2.2445c-.04038-.09232-.08654-.13848-.14992-.13848-.06931,0-.12126.07495-.12126.19614v2.12918a.20248.20248,0,0,1-.2308.2308Z"/><path class="cls-1" d="M63.66467,31.32173h-.06339a.32222.32222,0,0,1-.31493-.20511l-.98123-2.245c-.0463-.106-.08414-.106-.10023-.106-.03882,0-.06705.05972-.06705.14194v2.12918a.25479.25479,0,0,1-.285.285h-.06338a.25479.25479,0,0,1-.285-.285V27.34959a.25479.25479,0,0,1,.285-.285h.11533a.32191.32191,0,0,1,.31479.20511l.92928,2.14131c.034.07263.08273.10588.10616.10588.04517,0,.06112-.07341.06112-.13623V27.34959a.2549.2549,0,0,1,.28515-.285h.06339a.2548.2548,0,0,1,.285.285v3.68713A.2548.2548,0,0,1,63.66467,31.32173Zm-1.45978-2.66454c.11194,0,.16742.09754.19961.171l.98094,2.2445a.21616.21616,0,0,0,.21584.14067h.06339c.12549,0,.17659-.05117.17659-.17659V27.34959c0-.12542-.0511-.1766-.17659-.1766h-.06339c-.12549,0-.17673.05118-.17673.1766v2.03106c0,.18055-.09134.24464-.16954.24464a.2578.2578,0,0,1-.205-.16968l-.92956-2.14209a.216.216,0,0,0-.2157-.14053h-.11533c-.1255,0-.1766.05118-.1766.1766v3.68713c0,.12542.0511.17659.1766.17659h.06338c.12549,0,.17659-.05117.17659-.17659V28.90754C62.02942,28.73462,62.11751,28.65719,62.20489,28.65719Z"/><path class="cls-1" d="M72.74206,31.15212l-.19043-.19043a.39226.39226,0,0,1-.11533-.28275V29.62882a.20246.20246,0,0,1,.23081-.2308h.06338a.20246.20246,0,0,1,.2308.2308v.88284a.20254.20254,0,0,0,.2308.2308h.4098a.20244.20244,0,0,0,.23066-.2308V27.87472a.20241.20241,0,0,0-.23066-.2308h-.39822a.20254.20254,0,0,1-.2308-.23081v-.05773a.20254.20254,0,0,1,.2308-.23081h.92321a.20248.20248,0,0,1,.2308.23081v3.32356a.39222.39222,0,0,1-.11533.28275l-.19043.19043a.39239.39239,0,0,1-.28275.1154h-.74435A.39218.39218,0,0,1,72.74206,31.15212Z"/><path class="cls-1" d="M73.76917,31.32173h-.74435a.44454.44454,0,0,1-.32115-.13128L72.51324,31a.44451.44451,0,0,1-.13114-.32108V29.62882a.25479.25479,0,0,1,.285-.285h.06338a.25479.25479,0,0,1,.285.285v.88284c0,.12542.0511.17659.17659.17659h.4098c.12536,0,.17646-.05117.17646-.17659V27.87472c0-.12543-.0511-.1766-.17646-.1766h-.39822a.25479.25479,0,0,1-.285-.285v-.05773a.25479.25479,0,0,1,.285-.285h.92321a.25479.25479,0,0,1,.285.285v3.32356A.44451.44451,0,0,1,74.28075,31l-.19043.19043A.44526.44526,0,0,1,73.76917,31.32173Zm-1.10206-1.86951c-.1255,0-.1766.05118-.1766.1766v1.05012a.33826.33826,0,0,0,.09952.24442l.19043.19043a.33813.33813,0,0,0,.24436.09952h.74435a.33871.33871,0,0,0,.2445-.09959l.19029-.19036a.3383.3383,0,0,0,.09952-.24442V27.35538c0-.12543-.0511-.1766-.1766-.1766h-.92321c-.12549,0-.1766.05117-.1766.1766v.05773c0,.12543.05111.1766.1766.1766h.39822a.25475.25475,0,0,1,.28487.285v2.63694a.25475.25475,0,0,1-.28487.285h-.4098a.2548.2548,0,0,1-.285-.285v-.88284c0-.12542-.0511-.1766-.17659-.1766Z"/><path class="cls-1" d="M78.45511,31.26752a.20258.20258,0,0,1-.231-.2308v-.06346c0-.14426.06931-.2308.202-.2308s.202-.0866.202-.2308V27.87472c0-.14427-.06931-.2308-.202-.2308s-.202-.08654-.202-.23081v-.06352a.20258.20258,0,0,1,.231-.2308h.8769a.20258.20258,0,0,1,.231.2308v.06352c0,.15578-.06931.23081-.202.23081s-.20779.08653-.20779.2308v2.63694c0,.1442.0751.2308.20779.2308s.202.08654.202.2308v.06346a.20258.20258,0,0,1-.231.2308Z"/><path class="cls-1" d="M79.332,31.32173h-.8769a.2549.2549,0,0,1-.28516-.285v-.06346a.24964.24964,0,0,1,.25622-.285c.03656,0,.14779,0,.14779-.17659V27.87472c0-.1766-.11123-.1766-.14779-.1766a.24964.24964,0,0,1-.25622-.285v-.06352a.2549.2549,0,0,1,.28516-.285h.8769a.2549.2549,0,0,1,.28516.285v.06352c0,.248-.16051.285-.25622.285-.1269,0-.15358.09606-.15358.1766v2.63694c0,.08053.02668.17659.15358.17659a.24964.24964,0,0,1,.25622.285v.06346A.2549.2549,0,0,1,79.332,31.32173Zm-.8769-4.14874c-.1255,0-.17674.05118-.17674.1766v.06352c0,.1766.11124.1766.1478.1766a.24964.24964,0,0,1,.25621.285v2.63694a.24964.24964,0,0,1-.25621.285c-.03656,0-.1478,0-.1478.17659v.06346c0,.12542.05124.17659.17674.17659h.8769c.1255,0,.17674-.05117.17674-.17659v-.06346c0-.17659-.11124-.17659-.1478-.17659a.25434.25434,0,0,1-.262-.285V27.87472a.25434.25434,0,0,1,.262-.285c.07313,0,.1478-.021.1478-.1766v-.06352c0-.12542-.05124-.1766-.17674-.1766Z"/><path class="cls-1" d="M88.2362,31.15212l-.19043-.19043a.39226.39226,0,0,1-.11533-.28275V27.70737a.39238.39238,0,0,1,.11533-.28275l.19043-.19036a.392.392,0,0,1,.28276-.11547h1.10785a.392.392,0,0,1,.28275.11547l.19043.19036a.39234.39234,0,0,1,.11533.28275v.79052a.20248.20248,0,0,1-.2308.2308h-.06338a.20249.20249,0,0,1-.23081-.2308v-.62317a.20251.20251,0,0,0-.2308-.2308h-.7733a.20251.20251,0,0,0-.2308.2308v2.63694a.20254.20254,0,0,0,.2308.2308h.7733a.20254.20254,0,0,0,.2308-.2308v-.5655a.20249.20249,0,0,1,.23081-.23081h.06338a.20249.20249,0,0,1,.2308.23081v.73278a.39222.39222,0,0,1-.11533.28275l-.19043.19043a.39217.39217,0,0,1-.28275.1154H88.519A.39218.39218,0,0,1,88.2362,31.15212Z"/><path class="cls-1" d="M89.62681,31.32173H88.519a.44454.44454,0,0,1-.32115-.13128L88.00738,31a.44451.44451,0,0,1-.13114-.32108V27.70737a.44451.44451,0,0,1,.13114-.32108l.19057-.19036a.444.444,0,0,1,.321-.13135h1.10785a.44458.44458,0,0,1,.32115.13135l.19029.19036a.44412.44412,0,0,1,.13128.32108v.79052a.2548.2548,0,0,1-.285.285h-.06338a.2548.2548,0,0,1-.285-.285v-.62317c0-.12543-.05111-.1766-.1766-.1766h-.7733c-.12549,0-.17659.05117-.17659.1766v2.63694c0,.12542.0511.17659.17659.17659h.7733c.12549,0,.1766-.05117.1766-.17659v-.5655a.25479.25479,0,0,1,.285-.285h.06338a.25479.25479,0,0,1,.285.285v.73278A.44455.44455,0,0,1,90.13839,31l-.19043.19043A.44456.44456,0,0,1,89.62681,31.32173ZM88.519,27.173a.33771.33771,0,0,0-.24436.09959l-.19057.19036a.33874.33874,0,0,0-.09938.24443v2.97157a.33826.33826,0,0,0,.09952.24442l.19043.19043a.33789.33789,0,0,0,.24436.09952h1.10785a.33787.33787,0,0,0,.24435-.09952l.19043-.19043a.33826.33826,0,0,0,.09952-.24442v-.73278c0-.12543-.0511-.1766-.17659-.1766h-.06338c-.1255,0-.1766.05117-.1766.1766v.5655a.25479.25479,0,0,1-.285.285h-.7733a.2548.2548,0,0,1-.285-.285V27.87472a.2548.2548,0,0,1,.285-.285h.7733a.25479.25479,0,0,1,.285.285v.62317c0,.12542.0511.17659.1766.17659h.06338c.12549,0,.17659-.05117.17659-.17659v-.79052a.3383.3383,0,0,0-.09952-.24443l-.19029-.19036a.33824.33824,0,0,0-.24449-.09959Z"/><path class="cls-1" d="M94.555,31.14633l-.18464-.18464a.39222.39222,0,0,1-.11533-.28275V27.34959a.20248.20248,0,0,1,.2308-.2308h.06338a.20248.20248,0,0,1,.2308.2308v3.16207a.20254.20254,0,0,0,.23081.2308h1.29249a.20246.20246,0,0,1,.23081.2308v.06346a.20249.20249,0,0,1-.23081.2308H94.83773A.38489.38489,0,0,1,94.555,31.14633Z"/><path class="cls-1" d="M96.30329,31.32173H94.83773a.43636.43636,0,0,1-.321-.137l-.00014-.00007L94.33194,31a.44451.44451,0,0,1-.13114-.32108V27.34959a.25479.25479,0,0,1,.285-.285h.06338a.25479.25479,0,0,1,.285.285v3.16207c0,.12542.0511.17659.1766.17659h1.29249a.2548.2548,0,0,1,.285.285v.06346A.25479.25479,0,0,1,96.30329,31.32173Zm-1.71006-.2138a.33293.33293,0,0,0,.2445.10538h1.46556c.1255,0,.1766-.05117.1766-.17659v-.06346c0-.12542-.0511-.17659-.1766-.17659H95.0108a.25479.25479,0,0,1-.285-.285V27.34959c0-.12542-.0511-.1766-.1766-.1766h-.06338c-.1255,0-.1766.05118-.1766.1766v3.32935a.3383.3383,0,0,0,.09952.24442Z"/><path class="cls-1" d="M100.57378,31.26752a.20258.20258,0,0,1-.23094-.2308v-.06346c0-.14426.06931-.2308.202-.2308s.202-.0866.202-.2308V27.87472c0-.14427-.06931-.2308-.202-.2308s-.202-.08654-.202-.23081v-.06352a.20258.20258,0,0,1,.23094-.2308h.87691a.20258.20258,0,0,1,.23094.2308v.06352c0,.15578-.06931.23081-.202.23081s-.20779.08653-.20779.2308v2.63694c0,.1442.07509.2308.20779.2308s.202.08654.202.2308v.06346a.20258.20258,0,0,1-.23094.2308Z"/><path class="cls-1" d="M101.45069,31.32173h-.87691a.25489.25489,0,0,1-.28515-.285v-.06346a.24964.24964,0,0,1,.25621-.285c.03656,0,.1478,0,.1478-.17659V27.87472c0-.1766-.11124-.1766-.1478-.1766a.24964.24964,0,0,1-.25621-.285v-.06352a.25489.25489,0,0,1,.28515-.285h.87691a.25489.25489,0,0,1,.28515.285v.06352c0,.248-.1605.285-.25621.285-.12691,0-.15359.09606-.15359.1766v2.63694c0,.08053.02668.17659.15359.17659a.24964.24964,0,0,1,.25621.285v.06346A.25489.25489,0,0,1,101.45069,31.32173Zm-.87691-4.14874c-.12549,0-.17674.05118-.17674.1766v.06352c0,.1766.11124.1766.1478.1766a.24964.24964,0,0,1,.25621.285v2.63694a.24964.24964,0,0,1-.25621.285c-.03656,0-.1478,0-.1478.17659v.06346c0,.12542.05125.17659.17674.17659h.87691c.12549,0,.17674-.05117.17674-.17659v-.06346c0-.17659-.11124-.17659-.1478-.17659a.25434.25434,0,0,1-.262-.285V27.87472a.25434.25434,0,0,1,.262-.285c.07312,0,.1478-.021.1478-.1766v-.06352c0-.12542-.05125-.1766-.17674-.1766Z"/><path class="cls-1" d="M105.77891,31.26752a.20248.20248,0,0,1-.2308-.2308V27.34959a.20248.20248,0,0,1,.2308-.2308h.11533a.26877.26877,0,0,1,.26539.17313l.929,2.14068c.04052.08654.1039.13848.15585.13848.06931,0,.11533-.06924.11533-.19043V27.34959a.20258.20258,0,0,1,.23094-.2308h.06338a.20249.20249,0,0,1,.23081.2308v3.68713a.20249.20249,0,0,1-.23081.2308h-.06338a.26909.26909,0,0,1-.26553-.17314l-.981-2.2445c-.04037-.09232-.08653-.13848-.14991-.13848-.06931,0-.12126.07495-.12126.19614v2.12918a.20248.20248,0,0,1-.2308.2308Z"/><path class="cls-1" d="M107.65413,31.32173h-.06338a.32223.32223,0,0,1-.31494-.20511l-.98122-2.245c-.04631-.106-.08414-.106-.10023-.106-.03882,0-.06705.05972-.06705.14194v2.12918a.2548.2548,0,0,1-.285.285h-.06339a.2548.2548,0,0,1-.285-.285V27.34959a.2548.2548,0,0,1,.285-.285h.11533a.32192.32192,0,0,1,.3148.20511l.92928,2.14131c.034.07263.08272.10588.10616.10588.04517,0,.06112-.07341.06112-.13623V27.34959a.25489.25489,0,0,1,.28515-.285h.06338a.25479.25479,0,0,1,.285.285v3.68713A.25479.25479,0,0,1,107.65413,31.32173Zm-1.45977-2.66454c.11194,0,.16742.09754.1996.171l.98095,2.2445a.21615.21615,0,0,0,.21584.14067h.06338c.1255,0,.1766-.05117.1766-.17659V27.34959c0-.12542-.0511-.1766-.1766-.1766h-.06338c-.12549,0-.17674.05118-.17674.1766v2.03106c0,.18055-.09133.24464-.16953.24464a.25778.25778,0,0,1-.205-.16968l-.92957-2.14209a.21594.21594,0,0,0-.2157-.14053h-.11533c-.12549,0-.17659.05118-.17659.1766v3.68713c0,.12542.0511.17659.17659.17659h.06339c.12549,0,.17659-.05117.17659-.17659V28.90754C106.01889,28.73462,106.107,28.65719,106.19436,28.65719Z"/><path class="cls-1" d="M111.98236,31.26752a.20258.20258,0,0,1-.23095-.2308v-.06346c0-.14426.06932-.2308.202-.2308s.202-.0866.202-.2308V27.87472c0-.14427-.06931-.2308-.202-.2308s-.202-.08654-.202-.23081v-.06352a.20258.20258,0,0,1,.23095-.2308h.87691a.20258.20258,0,0,1,.23094.2308v.06352c0,.15578-.06931.23081-.202.23081s-.2078.08653-.2078.2308v2.63694c0,.1442.0751.2308.2078.2308s.202.08654.202.2308v.06346a.20258.20258,0,0,1-.23094.2308Z"/><path class="cls-1" d="M112.85927,31.32173h-.87691a.25489.25489,0,0,1-.28515-.285v-.06346a.24964.24964,0,0,1,.25621-.285c.03656,0,.1478,0,.1478-.17659V27.87472c0-.1766-.11124-.1766-.1478-.1766a.24964.24964,0,0,1-.25621-.285v-.06352a.25489.25489,0,0,1,.28515-.285h.87691a.2549.2549,0,0,1,.28515.285v.06352c0,.248-.16051.285-.25621.285-.12691,0-.15359.09606-.15359.1766v2.63694c0,.08053.02668.17659.15359.17659a.24964.24964,0,0,1,.25621.285v.06346A.2549.2549,0,0,1,112.85927,31.32173Zm-.87691-4.14874c-.1255,0-.17674.05118-.17674.1766v.06352c0,.1766.11124.1766.1478.1766a.24964.24964,0,0,1,.25621.285v2.63694a.24964.24964,0,0,1-.25621.285c-.03656,0-.1478,0-.1478.17659v.06346c0,.12542.05124.17659.17674.17659h.87691c.12549,0,.17673-.05117.17673-.17659v-.06346c0-.17659-.11123-.17659-.14779-.17659a.25434.25434,0,0,1-.262-.285V27.87472a.25434.25434,0,0,1,.262-.285c.07312,0,.14779-.021.14779-.1766v-.06352c0-.12542-.05124-.1766-.17673-.1766Z"/><path class="cls-1" d="M117.26231,31.15212l-.19043-.19043a.39222.39222,0,0,1-.11533-.28275V27.70737a.39234.39234,0,0,1,.11533-.28275l.19043-.19036a.39193.39193,0,0,1,.28275-.11547h1.10785a.39191.39191,0,0,1,.28275.11547l.19043.19036a.39234.39234,0,0,1,.11533.28275v.79052a.20248.20248,0,0,1-.2308.2308h-.06338a.20248.20248,0,0,1-.2308-.2308v-.62317a.20251.20251,0,0,0-.23081-.2308h-.77329a.2025.2025,0,0,0-.2308.2308v2.63694a.20253.20253,0,0,0,.2308.2308h.77329a.20254.20254,0,0,0,.23081-.2308v-.5655a.20248.20248,0,0,1,.2308-.23081h.06338a.20248.20248,0,0,1,.2308.23081v.73278a.39222.39222,0,0,1-.11533.28275l-.19043.19043a.39214.39214,0,0,1-.28275.1154h-1.10785A.39215.39215,0,0,1,117.26231,31.15212Z"/><path class="cls-1" d="M118.65291,31.32173h-1.10785a.44454.44454,0,0,1-.32115-.13128L117.03348,31a.44451.44451,0,0,1-.13114-.32108V27.70737a.44451.44451,0,0,1,.13114-.32108l.19057-.19036a.444.444,0,0,1,.321-.13135h1.10785a.44457.44457,0,0,1,.32115.13135l.19029.19036a.44408.44408,0,0,1,.13128.32108v.79052a.2548.2548,0,0,1-.285.285h-.06338a.2548.2548,0,0,1-.285-.285v-.62317c0-.12543-.0511-.1766-.1766-.1766h-.77329c-.1255,0-.1766.05117-.1766.1766v2.63694c0,.12542.0511.17659.1766.17659h.77329c.1255,0,.1766-.05117.1766-.17659v-.5655a.25479.25479,0,0,1,.285-.285h.06338a.25479.25479,0,0,1,.285.285v.73278A.44451.44451,0,0,1,119.16449,31l-.19043.19043A.44454.44454,0,0,1,118.65291,31.32173ZM117.54506,27.173a.33773.33773,0,0,0-.24436.09959l-.19057.19036a.33878.33878,0,0,0-.09938.24443v2.97157a.3383.3383,0,0,0,.09952.24442l.19043.19043a.33791.33791,0,0,0,.24436.09952h1.10785a.33791.33791,0,0,0,.24436-.09952l.19043-.19043a.3383.3383,0,0,0,.09952-.24442v-.73278c0-.12543-.0511-.1766-.1766-.1766h-.06338c-.1255,0-.1766.05117-.1766.1766v.5655a.25479.25479,0,0,1-.285.285h-.77329a.25479.25479,0,0,1-.285-.285V27.87472a.25479.25479,0,0,1,.285-.285h.77329a.25479.25479,0,0,1,.285.285v.62317c0,.12542.0511.17659.1766.17659h.06338c.1255,0,.1766-.05117.1766-.17659v-.79052a.33834.33834,0,0,0-.09952-.24443l-.19029-.19036a.33828.33828,0,0,0-.2445-.09959Z"/></svg>